/* XPM */
static char *_73f127b73104b73efb13922b0c451dfh8buuL3ryGwhYw3t[] = {
/* columns rows colors chars-per-pixel */
"100 50 41 1 ",
"  c #5D5D5D",
". c gray38",
"X c #656565",
"o c #6A6A6A",
"O c #6D6D6D",
"+ c gray45",
"@ c #747474",
"# c gray48",
"$ c gray49",
"% c gray51",
"& c #848484",
"* c gray54",
"= c gray56",
"- c #929292",
"; c #979797",
": c gray60",
"> c #9D9D9D",
", c gray64",
"< c #A4A4A4",
"1 c gray67",
"2 c #ACACAC",
"3 c #B2B2B2",
"4 c #B6B6B6",
"5 c gray72",
"6 c #BCBCBC",
"7 c gray76",
"8 c #C6C6C6",
"9 c #C8C8C8",
"0 c gray81",
"q c #D2D2D2",
"w c #D5D5D5",
"e c #DADADA",
"r c gainsboro",
"t c #E2E2E2",
"y c #E7E7E7",
"u c #EAEAEA",
"i c #EEEEEE",
"p c gray94",
"a c #F6F6F6",
"s c #F8F8F8",
"d c white",
/* pixels */
"++++++++++++++++++++++++++++++++++++++++++++++++++++++++++++++++++++++++++++++++++++++++++++++++++++",
"++++++++++++++++++++++++++++++++++++++++++++++++++++++++++++++++++++++++++++++++++++++++++++++++++++",
"++++++++++++++++++++++++++++++++++++++++++++++++++++++++++++++++++++++++++++++++++++++++++++++++++++",
"++++++++++++++++++++++++++++++++++++++++++++++++++++++++++++++++++++++++++++++++++++++++++++++++++++",
"++++++++++++++++++++++++++++++++++++++++++++++++++++++++++++++++++++++++++++++++++++++++++++++++++++",
"++++++++++++++++++++++++++++++++++++++++++++++++++++++++++++++++++++++++++++++++++++++++++++++++++++",
"++++++++++++++++++++++++++++++++++++++++++++++++++++++++++++++++++++++++++++++++++++++++++++++++++++",
"++++++++++++++++++++++++++++++++++++++++++++++++++++++++++++++++++++++++++++++++++++++++++++++++++++",
"++++++++++++++++++++++++++++++++++++++++++++++++++++++++++++++++++++++++++++++++++++++++++++++++++++",
"++++++++++++++++++++++++++++++++++++++++++++++++++++++++++++++++++++++++++++++++++++++++++++++++++++",
"++++++++++++++++++++++++++++++++++++++++++++++++++++++++++++++++++++++++++++++++++++++++++++++++++++",
"++++++++++++++++++++++++++++++++++++++++++++++++++++++++++++++++++++++++++++++++++++++++++++++++++++",
"++++++++++++++++++++++++++++++++++++++++++++++++++++++++++++++++++++++++++++++++++++++++++++++++++++",
"++++++++++++++++++++++++++++++++++++++++++++++++++++++++++++++++++++++++++++++++++++++++++++++++++++",
"++++++++++++++++++++++++++++++++++++++++++++++++++++++++++++++++++++++++++++++++++++++++++++++++++++",
"+++++++++@+++++++++++++++++++++++++++++OO+++++++++++++++++++++++++++++++++++++++++++++++++++++++++++",
"+++++++++OooO@++OOOO@++OOOO+++++++++++@$$#++++++++++++++++++++++++++++++++++++++++++++++++++++++++++",
"+++++++++*:>%+@O*::&+++*::*O++++++++@O<dsy@+++++++O++++++++++++++@+++++@+++++++++++++++@++++++++++++",
"++++++++o7dd8o@+rdd8O@+edd1o@+@++@@+@o1ddi@+++@@@@@@++++@@@@++++@@@+@@@@++@@+++++++@@@@@++++++++++++",
"++++++++o,ddt@+$addy@O$add&O@+ooOoO+@o<ddu@+@+OoOooO++@OXOoo++++OXo+oooo++oooo+++++OoOooO+++++++++++",
"++++++++O%sds%o:ddds&o;ddu@+O@1886;O+o<ddi@++O:6982&@+O-688<+O@+,6<+>892@+188<++++O=6882$O++++++++++",
"++++++++++tdd>.5dsdd<.4dd9O+*yddddd6+o1ddu@+#qddddd9O+7dddddt%O+rds9ddddeqdddd6O+O5dddddi*O+++++++++",
"+++++++++o7dd4Xwdtid6X0dd1o+rddt7pdd,.1ddu#o8dddipd>.1dddrpdde+Owdsdasdsddpsdda$o:dds9wddr++++++++++",
"+++++++++o,dd0@pd8qdw@udd=X=ddd=.2dd9.1ddi@$add7@%>@+rdd9o;ddd-Oeddi%;ddde@2ddd=oqdd9o#ydd*O@+++++++",
"+++++++++O%sdy=sd<4du=sdu#o<ddsippddeX1ddu+;ddd&O+O+#add,X@pdd1Xedd9X#pdd2.*sdd=Oyddpiiadd:O@+++++++",
"+++++++++++tdp5dd*,da5dd9Oo2ddddddddeX<ddiO:dds$+@+O#add,O#udd3Xedd6o#idd1X&sdd=+udddddddd:o@+++++++",
"++++++++@@o7dayda@&dsudd1oO,dda=%&%&&o1ddi+-ddd;.o@$@idd2 $add,Xedd6X#idd<X*ddd-otdd7$&&%*#+++++++++",
"+++++++++@o,dddde+@idsdd=O+$add9=*>7&X1ddu@@iddu34y5.8ddu>8dda%Owdd6X#idd1X*sds-.5ddp<*-31O+++++++++",
"++++++++++O%sddd6o+qdddi@+@O1ddddddd-X1ddi@o1dddddd6.&pdddddd3O+wdd6X#pdd<X*ddd-o$yddddddwo@++++++++",
"++++++++++++rdas>Oo3dpd9O+++O,yssdaq$o<say@@O<ussst-+O&wadsi1O++qdd5X#usd,o&asa=O+$9pddsi<O@++++++++",
"++++++++++++@###@++@###@+++++o+&=*#OO+@$##+++o@&=&+O+@OO$=&@o+++@##@++@##+++###++@OO$*=%+O++++++++++",
"++++++++++++++O++++++O+++++O+@+OOO++++++O++++++OOO@@+@@@OOO+@+O++O+++++O++++O+O++++++OOO++++++++++++",
"++++++++++++++++++O+++++++++++++@@++++++++++++++++++++++++++++++++++++++++++++++++O++@@+++++++++++++",
"+++++++++++++++++++++++++++++++++@++++++++++++++++++++++++++++++++++++++++++++++++++++++++++++++++++",
"++++++++++++++++++++++++++++++++++++++++++++++++++++++++++++++++++++++++++++++++++++++++++++++++++++",
"++++++++++++++++++++++++++++++++++++++++++++++++++++++++++++++++++++++++++++++++++++++++++++++++++++",
"++++++++++++++++++++++++++++++++++++++++++++++++++++++++++++++++++++++++++++++++++++++++++++++++++++",
"++++++++++++++++++++++++++++++++++++++++++++++++++++++++++++++++++++++++++++++++++++++++++++++++++++",
"++++++++++++++++++++++++++++++++++++++++++++++++++++++++++++++++++++++++++++++++++++++++++++++++++++",
"++++++++++++++++++++++++++++++++++++++++++++++++++++++++++++++++++++++++++++++++++++++++++++++++++++",
"++++++++++++++++++++++++++++++++++++++++++++++++++++++++++++++++++++++++++++++++++++++++++++++++++++",
"++++++++++++++++++++++++++++++++++++++++++++++++++++++++++++++++++++++++++++++++++++++++++++++++++++",
"++++++++++++++++++++++++++++++++++++++++++++++++++++++++++++++++++++++++++++++++++++++++++++++++++++",
"++++++++++++++++++++++++++++++++++++++++++++++++++++++++++++++++++++++++++++++++++++++++++++++++++++",
"++++++++++++++++++++++++++++++++++++++++++++++++++++++++++++++++++++++++++++++++++++++++++++++++++++",
"++++++++++++++++++++++++++++++++++++++++++++++++++++++++++++++++++++++++++++++++++++++++++++++++++++",
"++++++++++++++++++++++++++++++++++++++++++++++++++++++++++++++++++++++++++++++++++++++++++++++++++++",
"++++++++++++++++++++++++++++++++++++++++++++++++++++++++++++++++++++++++++++++++++++++++++++++++++++",
"++++++++++++++++++++++++++++++++++++++++++++++++++++++++++++++++++++++++++++++++++++++++++++++++++++",
"++++++++++++++++++++++++++++++++++++++++++++++++++++++++++++++++++++++++++++++++++++++++++++++++++++"
};
